<svg width="512" height="512" viewBox="0 0 512 512" fill="none" xmlns="http://www.w3.org/2000/svg">
<path d="M353.574 176.526L313.496 175.056L304.807 412.34L344.885 413.804L353.574 176.526Z" fill="#E74C3C"/>
<path d="M276.052 175.791H235.948V413.076H276.052V175.791Z" fill="#E74C3C"/>
<path d="M207.186 412.334L198.497 175.049L158.419 176.52L167.109 413.804L207.186 412.334Z" fill="#E74C3C"/>
<path d="M17.379 76.8669V116.971H59.168L92.32 493.706C93.229 504.059 101.899 512 112.292 512H399.032C409.426 512 418.102 504.053 419.004 493.699L452.157 116.971H494.621V76.8669H17.379ZM380.665 471.896H130.654L99.426 116.971H411.9L380.665 471.896Z" fill="#E74C3C"/>
<path d="M321.504 0H190.496C172.068 0 157.076 14.992 157.076 33.42V96.919H197.18V40.104H314.82V96.919H354.924V33.42C354.924 14.992 339.932 0 321.504 0Z" fill="#E74C3C"/>
</svg>
