<svg width="512" height="512" viewBox="0 0 512 512" fill="none" xmlns="http://www.w3.org/2000/svg">
<g clip-path="url(#clip0)">
<path d="M506.012 111.514L400.481 5.984C392.502 -1.989 379.593 -1.995 371.613 5.97L39.363 337.547C36.687 340.216 34.801 343.579 33.923 347.256L0.561985 486.828C-1.08602 493.725 0.970984 500.996 5.98798 506.014C9.86198 509.888 15.077 511.999 20.429 511.999C22.015 511.999 23.609 511.808 25.174 511.434L164.747 478.073C168.424 477.195 171.787 475.316 174.456 472.633L506.026 140.382C513.991 132.403 513.985 119.48 506.012 111.514ZM149.632 439.687L48.03 463.973L72.309 362.371L386.034 49.299L462.704 125.969L149.632 439.687Z" fill="#2574A9"/>
<path d="M322.176 83.605L293.296 112.485L399.496 218.686L428.376 189.806L322.176 83.605Z" fill="#2574A9"/>
<path d="M346.386 136.706L91.0898 392.003L119.97 420.883L375.266 165.586L346.386 136.706Z" fill="#2574A9"/>
<path d="M67.5429 338.924L38.6628 367.804L144.19 473.33L173.07 444.45L67.5429 338.924Z" fill="#2574A9"/>
</g>
<defs>
<clipPath id="clip0">
<rect width="511.999" height="511.999" fill="white"/>
</clipPath>
</defs>
</svg>
